<mxfile host="app.diagrams.net" modified="2023-01-29T16:20:27.285Z" agent="5.0 (Windows NT 10.0; Win64; x64) AppleWebKit/537.36 (KHTML, like Gecko) Chrome/109.0.0.0 Safari/537.36 Edg/109.0.1518.70" etag="BF9-jeb235nhiXrr44cL" version="20.8.13" type="github">
  <diagram name="第 1 页" id="F1omWaWqrcb2h9V2jNWQ">
    <mxGraphModel dx="1387" dy="834" grid="1" gridSize="10" guides="1" tooltips="1" connect="1" arrows="1" fold="1" page="1" pageScale="1" pageWidth="827" pageHeight="1169" math="0" shadow="0">
      <root>
        <mxCell id="0" />
        <mxCell id="1" parent="0" />
        <mxCell id="asynUt9ezle0UR4gIWYk-7" value="" style="group" parent="1" vertex="1" connectable="0">
          <mxGeometry x="150" y="120" width="300" height="100" as="geometry" />
        </mxCell>
        <mxCell id="asynUt9ezle0UR4gIWYk-1" value="" style="rounded=0;whiteSpace=wrap;html=1;gradientColor=none;" parent="asynUt9ezle0UR4gIWYk-7" vertex="1">
          <mxGeometry width="300" height="100" as="geometry" />
        </mxCell>
        <mxCell id="asynUt9ezle0UR4gIWYk-4" value="【集锦】热身赛-巴西0-1秘鲁 内马尔替补两人血染赛场" style="text;strokeColor=none;align=left;fillColor=none;html=1;verticalAlign=middle;whiteSpace=wrap;rounded=0;" parent="asynUt9ezle0UR4gIWYk-7" vertex="1">
          <mxGeometry x="100" y="10" width="190" height="50" as="geometry" />
        </mxCell>
        <mxCell id="asynUt9ezle0UR4gIWYk-5" value="&lt;font color=&quot;#ffffff&quot; style=&quot;font-size: 16px;&quot;&gt;浮动&lt;/font&gt;" style="whiteSpace=wrap;html=1;aspect=fixed;fillColor=#b0e3e6;strokeColor=#0e8088;glass=0;" parent="asynUt9ezle0UR4gIWYk-7" vertex="1">
          <mxGeometry x="10" y="10" width="80" height="80" as="geometry" />
        </mxCell>
      </root>
    </mxGraphModel>
  </diagram>
</mxfile>
